<svg width="16" height="16" viewBox="0 0 16 16" fill="none" xmlns="http://www.w3.org/2000/svg">
<path id="x" d="M16 16H12.3101C12.031 16 11.8036 15.9272 11.6279 15.7817C11.4625 15.6361 11.323 15.4698 11.2093 15.2827L7.84496 9.7154C7.79328 9.89214 7.73127 10.0585 7.65891 10.2144C7.5969 10.3704 7.52455 10.5159 7.44186 10.6511L4.46512 15.2827C4.35142 15.4594 4.21189 15.6257 4.04651 15.7817C3.88114 15.9272 3.67442 16 3.42636 16H0L5.45736 7.75049L0.217054 0H3.90698C4.18605 0 4.39277 0.0415852 4.52713 0.124756C4.6615 0.19753 4.78036 0.322288 4.88372 0.499026L8.21705 5.83236C8.33075 5.47888 8.49096 5.13061 8.69767 4.78753L11.3798 0.576998C11.6072 0.192333 11.9018 0 12.2636 0H15.7829L10.5581 7.57895L16 16Z" fill="#FAFAFA"/>
</svg>
